<?xml version="1.0" standalone="no"?>
<!DOCTYPE svg PUBLIC "-//W3C//DTD SVG 20010904//EN"
 "http://www.w3.org/TR/2001/REC-SVG-20010904/DTD/svg10.dtd">
<svg version="1.0" xmlns="http://www.w3.org/2000/svg"
 width="250.000000pt" height="250.000000pt" viewBox="0 0 250.000000 250.000000"
 preserveAspectRatio="xMidYMid meet">
<metadata>
Created by potrace 1.16, written by Peter Selinger 2001-2019
</metadata>
<g transform="translate(0.000000,250.000000) scale(0.097656,-0.097656)"
fill="#000000" stroke="none">
<path d="M2035 1920 c-35 -15 -110 -74 -149 -117 -28 -31 -36 -48 -31 -63 3
-11 10 -20 14 -20 10 0 58 35 116 84 25 21 48 36 51 33 8 -8 -37 -157 -103
-339 -55 -152 -64 -202 -38 -211 18 -7 134 27 275 81 146 56 161 64 158 80 -8
39 -33 36 -198 -21 -90 -31 -165 -55 -167 -53 -3 3 57 177 92 266 20 51 42
126 56 194 12 57 12 59 -10 77 -25 21 -36 22 -66 9z"/>
<path d="M1741 1791 c-12 -12 -21 -33 -21 -48 -3 -149 -66 -383 -104 -383 -21
0 -43 82 -53 194 -6 67 -12 92 -25 100 -32 20 -41 -6 -40 -116 2 -167 40 -248
116 -248 57 0 89 36 126 144 l17 51 8 -97 c12 -155 -5 -256 -51 -299 -30 -29
-51 -20 -77 34 -16 35 -18 36 -37 20 -25 -21 -25 -52 -2 -92 32 -57 109 -65
164 -17 14 13 37 46 50 72 21 46 23 60 21 224 -2 245 -26 444 -58 470 -10 9
-19 6 -34 -9z"/>
<path d="M1348 1762 c-14 -2 -31 -9 -36 -15 -10 -14 -43 -142 -67 -262 -9 -44
-18 -88 -21 -98 -3 -10 -35 -32 -70 -49 -64 -30 -75 -46 -54 -78 8 -13 15 -13
56 2 l46 16 -6 -26 c-3 -15 -9 -47 -12 -72 -6 -44 -20 -60 -76 -88 -3 -2 -9 6
-13 17 -5 17 -12 19 -54 14 -41 -5 -138 9 -164 24 -4 2 -1 10 5 17 106 110
140 195 103 265 -15 29 -58 51 -101 51 -61 0 -195 -67 -222 -111 -12 -18 -12
-24 0 -35 13 -14 17 -13 75 23 19 12 20 8 27 -125 8 -165 30 -350 44 -364 6
-6 17 -5 31 4 21 12 21 18 15 107 l-7 94 29 -7 c16 -3 66 -9 111 -13 66 -5 87
-3 107 10 23 15 25 15 38 -4 13 -21 14 -21 101 20 48 22 87 46 87 52 0 24 -22
49 -44 49 -23 0 -23 0 -11 58 6 33 15 64 19 71 6 10 78 51 90 51 2 0 7 -28 11
-62 3 -35 11 -89 17 -121 10 -56 12 -58 37 -52 14 4 28 8 30 11 2 2 -3 63 -12
136 -13 115 -13 135 -1 144 19 15 18 22 -5 42 -14 13 -21 43 -30 129 -19 182
-19 182 -73 175z m-424 -358 c9 -8 16 -23 16 -32 0 -47 -93 -174 -104 -141 -2
8 -7 49 -9 91 -5 76 -5 77 21 87 40 14 59 13 76 -5z"/>
<path d="M570 1430 c0 -18 -4 -20 -32 -15 -98 17 -179 -140 -179 -347 -1 -141
35 -212 112 -224 59 -9 118 31 157 105 37 73 41 101 12 101 -13 0 -31 -16 -48
-41 -69 -105 -117 -127 -148 -67 -28 55 -23 205 11 298 40 109 70 136 93 85 7
-14 12 -38 12 -53 0 -36 15 -50 46 -44 23 4 24 8 26 88 1 46 2 94 2 107 1 18
-5 23 -31 25 -28 3 -33 0 -33 -18z"/>
</g>
</svg>
